# xmcd
#
# Track frame offsets: 
#        150
#        11057
#        22882
#        34247
#        45587
#        58584
#        68894
#        80147
#        92734
#        103265
#        115001
#        125137
#        137101
#        150799
#        162460
#
# Disc length: 2337 seconds
#
# Revision: 7
# Processed by: cddbd v1.5.2PL0 Copyright (c) Steve Scherf et al.
# Submitted via: ExactAudioCopy v0.99pb5
#
DISCID=c6091f0f
DTITLE=Various Artist - Classic Country - TL 626-28 - Giants - CD 1
DYEAR=2002
DGENRE=Country
TTITLE0=Everly Brothers - Bye bye love
TTITLE1=Tennessee Ernie Ford - Sixteen tons
TTITLE2=Marty Robbins - A white sport coat (and a pink carnation)
TTITLE3=Sonny James - Young love
TTITLE4=Browns - The three bells
TTITLE5=Jimmie Rodgers - Honeycomb
TTITLE6=Floyd Cramer - Last date
TTITLE7=Bill Anderson - Still
TTITLE8=Ferlin Husky - Wings of a dove
TTITLE9=George Jones - She thinks I still care
TTITLE10=George Hamilton IV - Abilene
TTITLE11=Brenda Lee - I'm sorry
TTITLE12=Lefty Frizzell - Saginaw, Michigan
TTITLE13=Jim Reeves - Welcome to my world
TTITLE14=Patsy Cline - I fall to pieces
EXTD=YEAR: 2002
EXTT0=
EXTT1=
EXTT2=
EXTT3=
EXTT4=
EXTT5=
EXTT6=
EXTT7=
EXTT8=
EXTT9=
EXTT10=
EXTT11=
EXTT12=
EXTT13=
EXTT14=
PLAYORDER=
